<svg xmlns="http://www.w3.org/2000/svg" version="1.1" xmlns:xlink="http://www.w3.org/1999/xlink" xmlns:svgjs="http://svgjs.com/svgjs" width="546" height="530"><svg width="546" height="530" viewBox="0 0 546 530" fill="none" xmlns="http://www.w3.org/2000/svg">
<path fill-rule="evenodd" clip-rule="evenodd" d="M265 530C411.355 530 530 411.355 530 265C530 118.645 411.355 0 265 0C118.645 0 0 118.645 0 265C0 411.355 118.645 530 265 530ZM489 269C489 393.264 388.264 494 264 494C139.736 494 39 393.264 39 269C39 144.736 139.736 44 264 44C388.264 44 489 144.736 489 269ZM509 269C509 404.31 399.31 514 264 514C128.69 514 19 404.31 19 269C19 133.69 128.69 24 264 24C399.31 24 509 133.69 509 269Z" fill="#7F00E0"></path>
<path fill-rule="evenodd" clip-rule="evenodd" d="M358.561 398.812C349.479 402.118 339.437 397.435 336.131 388.353L308.004 311.075H264.075V276.075H295.265L265.118 193.246L193.949 388.779C190.644 397.862 180.602 402.544 171.519 399.239C162.437 395.933 157.755 385.891 161.06 376.809L246.907 140.946C249.436 133.999 255.905 129.626 262.872 129.433C271.344 127.508 280.124 132.142 283.173 140.519L369.02 376.382C372.326 385.464 367.643 395.507 358.561 398.812Z" fill="#FEFEFE"></path>
</svg><style>@media (prefers-color-scheme: light) { :root { filter: none; } }
</style></svg>